<?xml version="1.0" encoding="utf-8"?>
<!-- Generator: Adobe Illustrator 18.1.1, SVG Export Plug-In . SVG Version: 6.00 Build 0)  -->
<svg version="1.1" id="Layer_1" xmlns="http://www.w3.org/2000/svg" xmlns:xlink="http://www.w3.org/1999/xlink" x="0px" y="0px"
	 viewBox="0 0 48 48" enable-background="new 0 0 48 48" xml:space="preserve">
<g>
	<path fill="#59B247" d="M5.5,11.7c0.6,0.6,1,1.3,1.5,2c1.1,1.3,2.6,2.1,4.2,2.5c1.6,0.4,3.3,0.5,4.9,0.5c2.6,0.1,5.4,0,7.8-1.3
		c-1.3-0.7-2.6-1.5-3.8-2.2c-0.8-0.5-1.6-0.9-2.4-1.3c-1.4-0.7-3-1.1-4.6-1c-1.3,0.1-2.5,0.5-3.8,0.8C8,12,6.7,12.2,5.5,11.7z"/>
	<g>
		<rect x="0.5" y="33.7" fill="#EF9F2C" width="47" height="13.8"/>
		<rect x="0.5" y="24.7" fill="#B06D48" width="47" height="9"/>
		<path fill="#EFB7C4" d="M47.5,24.7h-47V20c0-2.4,2-4.4,4.4-4.4h38.2c2.4,0,4.4,2,4.4,4.4V24.7z"/>
		<path fill="#E14A4A" d="M30.2,9.2c0.8,0.6,1.6,1.4,1.9,2.4c0.3,1.2-0.2,2.5-1,3.4s-1.9,1.5-3,1.9c-1.4,0.6-2.9,1.2-4.5,1.2
			c-0.5,0-1.2-0.1-1.4-0.6C22,17.4,22,17.1,22,16.8c0-1.2,0.4-6.9,0.7-7.6c0.4-0.8,0.9-1.6,1.6-2c1.2-0.7,2.8-0.1,4,0.6
			C29,8.3,29.6,8.7,30.2,9.2z"/>
		<path fill="#80C350" d="M28,8.7c-0.8-0.8-1.2-2-1.3-3.2c-0.1-1.2,0.1-2.3,0.4-3.5c0.1-0.5,0.3-1,0.4-1.6c1.9,0.8,3.3,2.9,3.4,5
			c0,0.8-0.1,1.6-0.5,2.2s-1.1,1.2-1.8,1.2c-0.1,0-0.2,0-0.3,0C28.1,8.9,28,8.8,28,8.7z"/>
		<path fill="#59B247" d="M28.9,7.8c0.1-0.2,0.3-0.4,0.5-0.6C29.6,7.1,29.8,7,30,6.9c0.6-0.3,1.3-0.6,2-0.5c0.6,0,1.2,0.4,1.8,0.7
			c0.9,0.5,1.8,1,2.7,1.5c-0.1,0.3-0.3,0.4-0.5,0.5c-1.6,0.9-3.5,1.4-5.3,1.3c-0.5,0-1-0.1-1.4-0.4c-0.3-0.2-0.5-0.5-0.7-0.8
			c-0.1-0.2-0.2-0.3-0.2-0.5c0-0.1,0.1-0.2,0.2-0.3C28.6,8.2,28.8,8,28.9,7.8z"/>
	</g>
	<path fill="#78C14F" d="M14.4,8.9c-0.7-0.2-1.4-0.4-2-0.8c0.6,1.5,1.2,2.9,2.2,4.1s2.3,2.2,3.8,2.7c1.6,0.5,3.4,0.4,4.8,1.3
		c0.1-1.2-0.4-2.4-0.8-3.5c-0.2-0.4-0.4-0.9-0.6-1.3c-0.3-0.5-0.8-0.8-1.3-1.1c-0.6-0.3-1.2-0.6-1.9-0.8C17.2,9.2,15.8,9.2,14.4,8.9
		z"/>
	<path fill="#59B247" d="M28.3,14.3c-0.1-0.1-0.1-0.3-0.1-0.4c0-0.1,0.2-0.2,0.3-0.3c2.2-1.2,4.9-1.6,7.4-1.1
		c0.7,0.1,1.5,0.4,2.2,0.4c0.9,0,1.9-0.3,2.6-0.8c-0.2,1.5-1.2,2.9-2.5,3.7c-1.3,0.8-2.8,1.2-4.4,1.3c-0.5,0-1,0.1-1.5,0
		C30.7,17,29.1,15.9,28.3,14.3z"/>
</g>
</svg>
